<svg width="21" height="21" viewBox="0 0 21 21" fill="none" xmlns="http://www.w3.org/2000/svg">
<g clip-path="url(#clip0_112_802)">
<path fill-rule="evenodd" clip-rule="evenodd" d="M10.05 2.8624C5.90783 2.8624 2.54997 6.22026 2.54997 10.3624C2.54997 14.5046 5.90783 17.8624 10.05 17.8624C14.1921 17.8624 17.55 14.5046 17.55 10.3624C17.55 6.22026 14.1921 2.8624 10.05 2.8624ZM0.883301 10.3624C0.883301 5.29979 4.98736 1.19573 10.05 1.19573C15.1125 1.19573 19.2166 5.29979 19.2166 10.3624C19.2166 15.425 15.1125 19.5291 10.05 19.5291C4.98736 19.5291 0.883301 15.425 0.883301 10.3624ZM10.8833 8.69573V15.3624H9.21663V8.69573H10.8833ZM10.05 7.44573C10.7403 7.44573 11.3 6.88609 11.3 6.19573C11.3 5.50537 10.7403 4.94573 10.05 4.94573C9.35963 4.94573 8.79997 5.50537 8.79997 6.19573C8.79997 6.88609 9.35963 7.44573 10.05 7.44573Z" fill="white"/>
</g>
<defs>
<clipPath id="clip0_112_802">
<rect width="20" height="20" fill="white" transform="translate(0.0498047 0.362396)"/>
</clipPath>
</defs>
</svg>
