<svg width="21" height="21" viewBox="0 0 21 21" fill="none" xmlns="http://www.w3.org/2000/svg">
<path d="M18.8837 18.0558L14.6967 13.5001C15.7733 12.1613 16.3631 10.4767 16.3631 8.72307C16.3631 4.62581 13.1767 1.2923 9.26017 1.2923C5.34367 1.2923 2.15723 4.62581 2.15723 8.72307C2.15723 12.8203 5.34367 16.1538 9.26017 16.1538C10.7305 16.1538 12.1316 15.6899 13.3295 14.8092L17.5484 19.3995C17.7247 19.5911 17.9619 19.6967 18.2161 19.6967C18.4566 19.6967 18.6848 19.6007 18.8581 19.4263C19.2262 19.0557 19.2379 18.4412 18.8837 18.0558ZM9.26017 3.23076C12.1551 3.23076 14.5102 5.69454 14.5102 8.72307C14.5102 11.7516 12.1551 14.2154 9.26017 14.2154C6.36526 14.2154 4.01017 11.7516 4.01017 8.72307C4.01017 5.69454 6.36526 3.23076 9.26017 3.23076Z" fill="white"/>
</svg>
